<svg xmlns="http://www.w3.org/2000/svg" width="600" height="400" viewBox="0 0 158.8 105.8">
    <g stroke="#000">
        <rect width="158.8" height="105.8" stop-color="#000000" style="fill:#008080;stroke-width:0.0" fill-opacity="0.0"/>
        <circle cx="68.2" cy="50.5" r="28.9" stop-color="#000000" style="fill:#500;stroke-width:0.2"/>
        <path d="m22.1 5.4c-9.9 10.8-15.6 19.5-16.3 34.3-1.4 30.3 21.5 58.9 52.7 59.9 25 0.8 48.6-18.4 48.9-44.2 0.2-20-15.4-38.9-36.1-38.5-8 0.1-15.9 3.6-21.3 9.1l-16.2-21zm44.1 15.6h0c15.5 0 28.1 12.6 28.1 28.1 0 15.5-12.6 28.1-28.1 28.1-15.5 0-28.1-12.6-28.1-28.1 0-15.5 12.5-28 28-28.1z" style="fill:none;stroke-width:10"/>
    </g>
</svg>