<svg width="50" height="50" version="1.1" viewBox="0 0 13.229 13.229" xmlns="http://www.w3.org/2000/svg" xmlns:cc="http://creativecommons.org/ns#" xmlns:dc="http://purl.org/dc/elements/1.1/" xmlns:rdf="http://www.w3.org/1999/02/22-rdf-syntax-ns#">
 <metadata>
  <rdf:RDF>
   <cc:Work rdf:about="">
    <dc:format>image/svg+xml</dc:format>
    <dc:type rdf:resource="http://purl.org/dc/dcmitype/StillImage"/>
    <dc:title/>
   </cc:Work>
  </rdf:RDF>
 </metadata>
 <circle cx="6.6146" cy="6.6146" r="5" fill="#77216f" stop-color="#000000" stroke="#000" stroke-linecap="round" stroke-width=".041"/>
 <g shape-rendering="auto">
  <path transform="scale(.26458)" d="m27.834 6.3164c-1.2971 1.805-2.5977 3.5378-4.293 5-3.0019 2.5892-7.252 4.3706-14.939 4.293a18.898 18.898 0 0 0-0.13477 0.24023c7.8198 0.096286 12.172-1.7045 15.236-4.3477 1.7538-1.5126 3.0846-3.2956 4.4082-5.1406a18.898 18.898 0 0 0-0.27734-0.044922z" color="#000000" color-rendering="auto" dominant-baseline="auto" image-rendering="auto" solid-color="#000000" stop-color="#000000" style="font-feature-settings:normal;font-variant-alternates:normal;font-variant-caps:normal;font-variant-east-asian:normal;font-variant-ligatures:normal;font-variant-numeric:normal;font-variant-position:normal;font-variation-settings:normal;inline-size:0;isolation:auto;mix-blend-mode:normal;shape-margin:0;shape-padding:0;text-decoration-color:#000000;text-decoration-line:none;text-decoration-style:solid;text-indent:0;text-orientation:mixed;text-transform:none;white-space:normal"/>
  <path transform="scale(.26458)" d="m34.045 37.832c-4.1757 0.044187-8.9525 0.75605-13.428 1.8535-1.8465 0.45282-3.6111 0.98281-5.2891 1.5488a18.898 18.898 0 0 0 0.28516 0.16797c1.6122-0.5354 3.2987-1.0421 5.0625-1.4746 4.4597-1.0937 9.2272-1.7998 13.377-1.8438 1.551-0.016413 3.0144 0.059125 4.3438 0.24219a18.898 18.898 0 0 0 0.2168-0.2207c-1.396-0.20365-2.9336-0.29074-4.5684-0.27344z" color="#000000" color-rendering="auto" dominant-baseline="auto" image-rendering="auto" solid-color="#000000" stop-color="#000000" style="font-feature-settings:normal;font-variant-alternates:normal;font-variant-caps:normal;font-variant-east-asian:normal;font-variant-ligatures:normal;font-variant-numeric:normal;font-variant-position:normal;font-variation-settings:normal;inline-size:0;isolation:auto;mix-blend-mode:normal;shape-margin:0;shape-padding:0;text-decoration-color:#000000;text-decoration-line:none;text-decoration-style:solid;text-indent:0;text-orientation:mixed;text-transform:none;white-space:normal"/>
  <path transform="scale(.26458)" d="m35.324 9.1719c-8.5603 8.2063-18.516 11.909-29.104 13.723a18.898 18.898 0 0 0-0.025391 0.25391c10.66-1.8197 20.709-5.5535 29.338-13.838a18.898 18.898 0 0 0-0.20898-0.13867z" color="#000000" color-rendering="auto" dominant-baseline="auto" image-rendering="auto" solid-color="#000000" stop-color="#000000" style="font-feature-settings:normal;font-variant-alternates:normal;font-variant-caps:normal;font-variant-east-asian:normal;font-variant-ligatures:normal;font-variant-numeric:normal;font-variant-position:normal;font-variation-settings:normal;inline-size:0;isolation:auto;mix-blend-mode:normal;shape-margin:0;shape-padding:0;text-decoration-color:#000000;text-decoration-line:none;text-decoration-style:solid;text-indent:0;text-orientation:mixed;text-transform:none;white-space:normal"/>
  <path transform="scale(.26458)" d="m42.723 31.555c-9.1957 0.51891-19.846 2.3597-30.748 7.1348a18.898 18.898 0 0 0 0.19727 0.18359c10.795-4.7129 21.336-6.5419 30.457-7.0664a18.898 18.898 0 0 0 0.09375-0.25195z" color="#000000" color-rendering="auto" dominant-baseline="auto" image-rendering="auto" solid-color="#000000" stop-color="#000000" style="font-feature-settings:normal;font-variant-alternates:normal;font-variant-caps:normal;font-variant-east-asian:normal;font-variant-ligatures:normal;font-variant-numeric:normal;font-variant-position:normal;font-variation-settings:normal;inline-size:0;isolation:auto;mix-blend-mode:normal;shape-margin:0;shape-padding:0;text-decoration-color:#000000;text-decoration-line:none;text-decoration-style:solid;text-indent:0;text-orientation:mixed;text-transform:none;white-space:normal"/>
  <path transform="scale(.26458)" d="m43.898 24.994c-11.466 2.2431-23.277 5.7597-34.887 10.08a18.898 18.898 0 0 0 0.13477 0.21094c11.567-4.3021 23.332-7.8054 34.75-10.043a18.898 18.898 0 0 0 0.001954-0.24219 18.898 18.898 0 0 0 0-0.005859z" color="#000000" color-rendering="auto" dominant-baseline="auto" image-rendering="auto" solid-color="#000000" stop-color="#000000" style="font-feature-settings:normal;font-variant-alternates:normal;font-variant-caps:normal;font-variant-east-asian:normal;font-variant-ligatures:normal;font-variant-numeric:normal;font-variant-position:normal;font-variation-settings:normal;inline-size:0;isolation:auto;mix-blend-mode:normal;shape-margin:0;shape-padding:0;text-decoration-color:#000000;text-decoration-line:none;text-decoration-style:solid;text-indent:0;text-orientation:mixed;text-transform:none;white-space:normal"/>
  <path transform="scale(.26458)" d="m40.596 14.328c-10.884 6.048-22.315 10.887-34.127 14.377a18.898 18.898 0 0 0 0.052734 0.24414c11.843-3.4982 23.303-8.3505 34.213-14.416a18.898 18.898 0 0 0-0.13867-0.20508z" color="#000000" color-rendering="auto" dominant-baseline="auto" image-rendering="auto" solid-color="#000000" stop-color="#000000" style="font-feature-settings:normal;font-variant-alternates:normal;font-variant-caps:normal;font-variant-east-asian:normal;font-variant-ligatures:normal;font-variant-numeric:normal;font-variant-position:normal;font-variation-settings:normal;inline-size:0;isolation:auto;mix-blend-mode:normal;shape-margin:0;shape-padding:0;text-decoration-color:#000000;text-decoration-line:none;text-decoration-style:solid;text-indent:0;text-orientation:mixed;text-transform:none;white-space:normal"/>
  <path transform="scale(.26458)" d="m42.537 17.961c-1.7235 0.87369-3.7182 1.6186-5.6797 2.2656-2.4599 0.81136-4.842 1.4777-6.4961 2.1035-0.82703 0.31293-1.4734 0.61219-1.8672 0.92969-0.19689 0.15875-0.33212 0.32108-0.38477 0.50976-0.052644 0.18869-0.006025 0.39072 0.13281 0.56836 0.28285 0.36189 0.83195 0.51319 1.5508 0.53906s1.6221-0.074306 2.6504-0.26562c2.0565-0.38264 4.6062-1.129 7.0938-1.9492 1.3932-0.45941 2.7318-0.93375 3.9883-1.3926a18.898 18.898 0 0 0-0.050782-0.24414c-1.263 0.46079-2.6088 0.93777-4.0117 1.4004-2.4821 0.81844-5.0283 1.5626-7.0645 1.9414-1.0181 0.18942-1.9096 0.29039-2.5977 0.26562-0.68803-0.024761-1.1609-0.17991-1.3652-0.44141-0.10478-0.13406-0.12162-0.24157-0.089844-0.35547 0.031779-0.1139 0.1282-0.2421 0.30274-0.38281 0.34906-0.28143 0.98515-0.58517 1.8027-0.89453 1.6352-0.61872 4.014-1.29 6.4805-2.1035 1.9569-0.64545 3.9565-1.388 5.6953-2.2656a18.898 18.898 0 0 0-0.089844-0.22852z" color="#000000" color-rendering="auto" dominant-baseline="auto" image-rendering="auto" solid-color="#000000" stop-color="#000000" style="font-feature-settings:normal;font-variant-alternates:normal;font-variant-caps:normal;font-variant-east-asian:normal;font-variant-ligatures:normal;font-variant-numeric:normal;font-variant-position:normal;font-variation-settings:normal;inline-size:0;isolation:auto;mix-blend-mode:normal;shape-margin:0;shape-padding:0;text-decoration-color:#000000;text-decoration-line:none;text-decoration-style:solid;text-indent:0;text-orientation:mixed;text-transform:none;white-space:normal"/>
 </g>
</svg>
