<svg width="1500" height="650" version="1.1" viewBox="0 0 396.87 171.98" xmlns="http://www.w3.org/2000/svg" xmlns:cc="http://creativecommons.org/ns#" xmlns:dc="http://purl.org/dc/elements/1.1/" xmlns:rdf="http://www.w3.org/1999/02/22-rdf-syntax-ns#">
 <metadata>
  <rdf:RDF>
   <cc:Work rdf:about="">
    <dc:format>image/svg+xml</dc:format>
    <dc:type rdf:resource="http://purl.org/dc/dcmitype/StillImage"/>
    <dc:title/>
   </cc:Work>
  </rdf:RDF>
 </metadata>
 <g transform="rotate(-45 187.5 65.598)" stroke-width=".26458" style="font-variant-caps:normal;font-variant-east-asian:normal;font-variant-ligatures:normal;font-variant-numeric:normal" aria-label="CODING">
  <path d="m150.04 60.234v0.62528q-0.30489 0.04651-0.45475 0.26872-0.14986 0.22221-0.14986 0.63562v4.4907q0 0.11886 0.0465 0.25321 0.0517 0.12919 0.12919 0.22221 0.0827 0.10335 0.1757 0.14986 0.093 0.04134 0.25322 0.05684v0.63045q-1.0025 0-1.7415-0.52193-0.65112-0.45992-0.98185-1.2351-0.33073-0.78031-0.33073-1.8448 0-0.78031 0.21187-1.4521 0.21704-0.67696 0.62529-1.1731 0.41341-0.50126 0.98701-0.80615 0.57878-0.30489 1.111-0.30489zm0.40824 0.63045v-0.62528q0.25321 0.04134 0.40824 0.08785 0.1602 0.04651 0.57361 0.19637 0.26355 0.09302 0.3514 0.09302 0.14986 0 0.22737-0.13436l0.0672-0.12402q0.062-0.12402 0.23255-0.12402 0.13952 0 0.21187 0.08268 0.0775 0.08268 0.0775 0.24288v2.1497q0 0.2067-0.093 0.29972-0.093 0.09302-0.21188 0.09302-0.12402 0-0.20153-0.07751-0.0724-0.08268-0.11886-0.26355-0.10852-0.40824-0.21187-0.64079-0.22221-0.49092-0.50643-0.79582-0.1912-0.2067-0.3824-0.31522-0.19121-0.11369-0.42375-0.14469zm0.0155 6.7024v-0.63045q0.40308-0.03101 0.84749-0.30489 0.23771-0.14986 0.42375-0.39791 0.18603-0.25321 0.27905-0.55294 0.0517-0.16536 0.11886-0.23254 0.0723-0.07235 0.18603-0.07235 0.12402 0 0.20671 0.09302 0.0827 0.09302 0.0827 0.23254 0 0.23254-0.18087 0.56327-0.1757 0.33073-0.45475 0.60978-0.34106 0.34106-0.7028 0.50643-0.35656 0.16536-0.80615 0.18604z"/>
  <path d="m156.11 60.792q-0.26355 0.09302-0.37207 0.25321-0.10852 0.1602-0.10852 0.47025v4.6199q0 0.45475 0.12402 0.64079 0.0982 0.15503 0.35657 0.22221v0.56844q-1.1472-0.09302-1.9224-0.86299-1.0077-1.0025-1.0077-2.7957 0-0.89917 0.26355-1.6226 0.26872-0.72864 0.79065-1.2351 0.39791-0.38757 0.85783-0.58911 0.45991-0.20154 1.018-0.22738zm0.42374 0v-0.5581q0.55811 0.02584 1.018 0.22738 0.46508 0.20154 0.86299 0.58911 1.0542 1.0284 1.0542 2.8577 0 1.7932-1.0077 2.7957-0.77515 0.77514-1.9275 0.86299v-0.56844q0.13436-0.03101 0.20671-0.07752 0.0775-0.05168 0.13952-0.14469 0.13953-0.21187 0.13953-0.64079v-4.6199q0-0.27388-0.093-0.43408-0.062-0.10852-0.14986-0.17053-0.0827-0.06201-0.24288-0.11886z"/>
  <path d="m162.94 60.373v7.0538h-2.434q-0.18604 0-0.28939-0.06718-0.0982-0.07235-0.0982-0.20154 0-0.21187 0.2067-0.27905 0.17053-0.05684 0.19637-0.06718 0.031-0.0155 0.062-0.06201 0.062-0.08268 0.062-0.26355v-5.1728q0-0.18087-0.062-0.26355-0.031-0.04651-0.062-0.05684-0.0258-0.0155-0.19637-0.07235-0.2067-0.06718-0.2067-0.27905 0-0.12919 0.0982-0.19637 0.10335-0.07235 0.28939-0.07235h0.13436zm1.0439 5.5759v-4.0773q0-0.37724-0.10852-0.59944-0.0672-0.14469-0.16536-0.21187-0.0982-0.06718-0.31006-0.11369v-0.57361q0.27388 0 0.46509 0.02067 0.65628 0.07235 1.2712 0.5581 0.60978 0.47025 0.90434 1.2247 0.30489 0.76481 0.30489 1.695 0 1.0542-0.38758 1.8758-0.38757 0.81648-1.111 1.2867-0.3514 0.22738-0.65629 0.31006-0.29973 0.08268-0.79065 0.08268v-0.5581q0.21704-0.05684 0.29972-0.10335 0.0879-0.04651 0.14986-0.14469 0.0775-0.11369 0.10336-0.25321 0.031-0.14469 0.031-0.41858z"/>
  <path d="m169.81 67.427h-2.4391q-0.18603 0-0.28939-0.06718-0.0982-0.07235-0.0982-0.20154 0-0.21187 0.2067-0.27905 0.17054-0.05684 0.19637-0.06718 0.031-0.0155 0.062-0.06201 0.062-0.08268 0.062-0.26355v-5.1728q0-0.18087-0.062-0.26355-0.031-0.04651-0.062-0.05684-0.0258-0.0155-0.19637-0.07235-0.2067-0.06718-0.2067-0.27905 0-0.12919 0.0982-0.19637 0.10336-0.07235 0.28939-0.07235h2.5735q0.18603 0 0.28422 0.07235 0.10335 0.06718 0.10335 0.19637 0 0.21187-0.2067 0.27905-0.17054 0.05684-0.20154 0.07235-0.0258 0.01034-0.0568 0.05684-0.062 0.08268-0.062 0.26355v5.1728q0 0.18087 0.062 0.26355 0.031 0.04651 0.0568 0.06201 0.031 0.01033 0.20154 0.06718 0.2067 0.06718 0.2067 0.27905 0 0.12919-0.10335 0.20154-0.0982 0.06718-0.28422 0.06718z"/>
  <path d="m174.12 60.373 2.7492 4.7749v2.2789h-1.4108l-3.5088-6.0461q-0.11369-0.19637-0.18604-0.27388-0.0723-0.07751-0.18603-0.11369l-0.19637-0.07235q-0.0775-0.02584-0.12402-0.09302-0.0465-0.06718-0.0465-0.14986 0-0.08785 0.0465-0.1602 0.0465-0.07751 0.12402-0.10852 0.0879-0.03617 0.47542-0.03617zm-2.1652 1.8138 0.54776 0.9095v2.7698q0 0.36173 0.11886 0.59428 0.12402 0.23254 0.38757 0.3824l0.15503 0.08785q0.13436 0.07752 0.13436 0.23254 0 0.11886-0.0982 0.19637-0.0827 0.06718-0.34106 0.06718h-1.1937q-0.47026 0-0.47026-0.26872 0-0.09302 0.0465-0.14469 0.0517-0.05684 0.21704-0.14986 0.4961-0.27388 0.4961-0.99735zm4.9144 2.1342-0.54777-0.925v-1.4314q0-0.43408-0.12919-0.66146-0.12402-0.23254-0.44442-0.39791-0.10852-0.05168-0.14986-0.10852-0.0413-0.06201-0.0413-0.15503 0-0.13953 0.0879-0.20154 0.093-0.06718 0.29456-0.06718h1.2919q0.26355 0 0.34623 0.08268 0.0879 0.08268 0.0879 0.19637 0 0.10852-0.0517 0.16536-0.0465 0.05168-0.23255 0.14469-0.27388 0.13952-0.41341 0.42891-0.0982 0.21187-0.0982 0.57361z"/>
  <path d="m181 60.234v0.57361q-0.45475 0.10852-0.45475 0.72347v4.8111q0 0.27905 0.0775 0.42891 0.0672 0.12402 0.28422 0.21187v0.58394q-0.16536 0-0.30489-0.02584-0.13436-0.02584-0.36173-0.10335-0.5426-0.18604-0.98185-0.56844t-0.72347-0.91467q-0.43925-0.83199-0.43925-1.9689 0-1.1007 0.39274-1.9534 0.39274-0.85266 1.1265-1.3384 0.42375-0.28422 0.90951-0.40824 0.20153-0.05168 0.47542-0.05168zm0.42374 0.56327v-0.5581q0.84233 0.07751 1.3849 0.31006 0.16019 0.07235 0.24804 0.07235 0.0827 0 0.12403-0.03617 0.0465-0.04134 0.18086-0.22221 0.093-0.12919 0.23255-0.12919 0.14469 0 0.20153 0.08268 0.062 0.07751 0.062 0.26355v2.0102q0 0.39274-0.28938 0.39274-0.1447 0-0.21704-0.07751-0.0672-0.07751-0.12919-0.30489-0.0775-0.28939-0.27906-0.67179-0.20153-0.38757-0.38757-0.60978-0.21187-0.25838-0.47542-0.37724-0.26355-0.12402-0.65629-0.14469zm2.3358 5.7671q-0.20671 0.2067-0.55294 0.42374-0.34106 0.21187-0.64595 0.3359-0.27905 0.10852-0.62011 0.1757-0.3359 0.06718-0.59428 0.06718v-0.58394q0.14986-0.03617 0.22221-0.08785 0.0775-0.05168 0.12919-0.14469 0.0879-0.1602 0.0879-0.40824v-1.5089q0-0.20154-0.0775-0.28939-0.0362-0.05168-0.0723-0.06201-0.0362-0.0155-0.23772-0.06201-0.24804-0.06201-0.24804-0.28939 0-0.13436 0.11369-0.2067 0.11885-0.07235 0.34623-0.07235h2.0619q0.23254 0 0.32556 0.06718 0.0982 0.06201 0.0982 0.22221 0 0.09818-0.0413 0.16536-0.0362 0.06201-0.13952 0.13436-0.10335 0.07235-0.12919 0.13436-0.0258 0.06201-0.0258 0.22738z"/>
 </g>
 <g transform="rotate(-45 187.5 65.598)" stroke-width=".26458" style="font-variant-caps:normal;font-variant-east-asian:normal;font-variant-ligatures:normal;font-variant-numeric:normal" aria-label="MATH">
  <path d="m207.54 111.81h2.434q0.38757 0 0.38757 0.26872 0 0.21187-0.20671 0.27905-0.17053 0.0568-0.20153 0.0724-0.0258 0.0103-0.0568 0.0568-0.062 0.0827-0.062 0.26355v5.1728q0 0.18087 0.062 0.26355 0.031 0.0465 0.0568 0.062 0.031 0.0103 0.20153 0.0672 0.20671 0.0672 0.20671 0.27905 0 0.26872-0.38757 0.26872h-2.6097q-0.22737 0-0.34623-0.0672-0.11368-0.0724-0.11368-0.21187 0-0.22738 0.24804-0.28422 0.20154-0.0517 0.23771-0.062 0.0362-0.0155 0.0724-0.062 0.0775-0.093 0.0775-0.29456zm-1.9017 0 1.018 2.899 0.44958-1.5658v1.7156l-1.1937 4.0049h-0.27388l-2.005-5.9479q-0.10335-0.29972-0.21704-0.40307-0.0672-0.0672-0.23255-0.0982-0.33589-0.0723-0.33589-0.32039 0-0.13436 0.093-0.20671 0.0982-0.0775 0.27905-0.0775zm-2.005 2.3771 0.54777 1.5606v1.5555q0 0.23771 0.0155 0.34106 0.0207 0.10335 0.0827 0.22738 0.10852 0.22737 0.29972 0.34106l0.19121 0.12402q0.19637 0.11886 0.19637 0.26355 0 0.26355-0.38758 0.26355h-1.2971q-0.38757 0-0.38757-0.25838 0-0.0827 0.031-0.12402 0.0362-0.0465 0.13436-0.10336 0.57361-0.31005 0.57361-1.0749z"/>
  <path d="m213.29 111.81h2.0826l1.4366 6.072q0.0413 0.1602 0.093 0.28422 0.0465 0.0982 0.20671 0.1602 0.13435 0.0568 0.18603 0.11369 0.0517 0.0568 0.0517 0.15502 0 0.26872-0.40308 0.26872h-2.5786q-0.15503 0-0.24805-0.0724-0.093-0.0775-0.093-0.20153 0-0.10336 0.0413-0.15503 0.0413-0.0517 0.18604-0.12919 0.10335-0.0517 0.14469-0.11369 0.0413-0.062 0.0413-0.15503 0-0.0879-0.0155-0.15503l-0.16536-0.7493h-1.4418l0.13952-0.61495h1.1576l-0.95084-4.2013zm-0.35657 1.3126 0.26355 1.0697-0.91467 3.3383q-0.0413 0.1447-0.0413 0.26872 0 0.32556 0.30489 0.46509l0.18087 0.0827q0.17053 0.0775 0.17053 0.25838 0 0.25838-0.37724 0.25838h-1.3126q-0.19121 0-0.30489-0.0775-0.10852-0.0827-0.10852-0.22221 0-0.14986 0.22737-0.24805 0.21187-0.093 0.31006-0.16536 0.10335-0.0775 0.19637-0.20671 0.14469-0.21187 0.23771-0.56327z"/>
  <path d="m221.64 111.81v6.072q0 0.20154 0.0775 0.28939 0.0413 0.0517 0.0775 0.0672 0.0362 0.0103 0.23771 0.062 0.24805 0.0568 0.24805 0.28422 0 0.13436-0.13436 0.21704-0.0982 0.062-0.33073 0.062h-2.6458q-0.22738 0-0.34623-0.0672-0.11369-0.0724-0.11369-0.21187 0-0.22738 0.24805-0.28422 0.20153-0.0517 0.23771-0.062 0.0362-0.0155 0.0723-0.0672 0.0775-0.0879 0.0775-0.28939v-6.072zm1.788 0v2.1136q0 0.14986-0.0879 0.24288-0.0827 0.093-0.21704 0.093-0.12919 0-0.21704-0.0827-0.0827-0.0879-0.10852-0.23771l-0.0517-0.31522q-0.0775-0.48059-0.29973-0.83199-0.13952-0.21704-0.37723-0.35657v-0.62528zm-5.8601 0h1.3591v0.62528q-0.24288 0.13953-0.37724 0.35657-0.22221 0.3514-0.29972 0.83199l-0.0517 0.31522q-0.0258 0.14986-0.11368 0.23771-0.0827 0.0827-0.21188 0.0827-0.13435 0-0.2222-0.093-0.0827-0.093-0.0827-0.24288z"/>
  <path d="m227.45 115.01h0.84232v-2.2531q0-0.28939-0.14986-0.34106l-0.16536-0.0517q-0.19637-0.062-0.19637-0.27905 0-0.26872 0.37206-0.26872h2.5735q0.38757 0 0.38757 0.26872 0 0.21187-0.2067 0.27905-0.17053 0.0568-0.20154 0.0724-0.0258 0.0103-0.0568 0.0568-0.062 0.0827-0.062 0.26355v5.1521q0 0.28422 0.15503 0.34623l0.16536 0.0569q0.2067 0.0672 0.2067 0.28422 0 0.27388-0.38757 0.27388h-2.5838q-0.36173 0-0.36173-0.27388 0-0.21704 0.19637-0.28422l0.16536-0.0569q0.14986-0.0465 0.14986-0.34623v-2.3874h-0.84232zm-0.43408 3.8602h-2.4391q-0.18604 0-0.28939-0.0672-0.0982-0.0724-0.0982-0.20154 0-0.21187 0.20671-0.27905 0.17053-0.0568 0.19637-0.0672 0.031-0.0155 0.062-0.062 0.062-0.0827 0.062-0.26355v-5.1728q0-0.18087-0.062-0.26355-0.031-0.0465-0.062-0.0568-0.0258-0.0155-0.19637-0.0724-0.20671-0.0672-0.20671-0.27905 0-0.12919 0.0982-0.19637 0.10335-0.0724 0.28939-0.0724h2.5735q0.36691 0 0.36691 0.26872 0 0.21704-0.19637 0.27905l-0.1602 0.0517q-0.14986 0.0517-0.14986 0.34106v5.1728q0 0.28939 0.14986 0.34107l0.1602 0.0517q0.19637 0.062 0.19637 0.27905 0 0.26872-0.36691 0.26872z"/>
 </g>
 <g fill="none" stroke="#000" stroke-width="1.5">
  <path d="m98.714 44.243 108.43 108.43" stop-color="#000000" style="font-variation-settings:normal"/>
  <path d="m26.657 43.552 147.48 147.48" stop-color="#000000" style="font-variation-settings:normal"/>
  <path d="m153.11 97.583-72.287 72.287"/>
 </g>
 <path d="m170.77 116.3 36.374-36.374 36.374 36.374-36.374 36.374z" fill="#dd4814" stop-color="#000000" style="font-variation-settings:normal"/>
 <path d="m170.77 43.552 36.374-36.374 36.374 36.374-36.374 36.374z" fill="#77216f" stop-color="#000000" style="font-variation-settings:normal"/>
 <path d="m243.52 43.552-108.43 108.43" fill="none" stroke="#000" stroke-width="1.5"/>
 <path d="m98.714 115.61 36.213-36.213 18.187 18.187-36.213 36.213z" fill="#2c001e" stop-color="#000000" style="font-variation-settings:normal"/>
 <g fill="none" stroke="#000" stroke-width="1.5">
  <path d="m315.58 44.243-108.43 108.43"/>
  <path d="m207.14 7.1774-108.43 108.43"/>
  <path d="m207.14 7.1774 108.43 108.43"/>
 </g>
 <path d="m279.36 8.0302 36.213 36.213-18.187 18.187-36.213-36.213z" fill="#b5a6b0" stop-color="#000000" style="font-variation-settings:normal"/>
 <path d="m149.91-85.053 147.48 147.48" fill="none" stop-color="#000000" stroke="#000" stroke-width="1.5" style="font-variation-settings:normal"/>
 <path d="m370.22-46.612-108.43 108.43" fill="none" stroke="#000" stroke-width="1.5"/>
</svg>
